D:\school\WTK\thesis\model\3dpredictsim\Results\debug_batch\Pog_s1_tmt_aCst_d00_k2000_ig24_pas_GRF.mot
nRows=20
nColumns=19

name D:\school\WTK\thesis\model\3dpredictsim\Results\debug_batch\Pog_s1_tmt_aCst_d00_k2000_ig24_pas_GRF.mot
datacolumns 19
datarows 20
range 0.0000000000 0.2101905571
endheader
time 	ground_force_vx	ground_force_vy	ground_force_vz	ground_force_px	ground_force_py	ground_force_pz	1_ground_force_vx	1_ground_force_vy	1_ground_force_vz	1_ground_force_px	1_ground_force_py	1_ground_force_pz	ground_torque_x	ground_torque_y	ground_torque_z	1_ground_torque_x	1_ground_torque_y	1_ground_torque_z
        0.0000000000	      -64.2292045667	       50.9174006531	       21.0666591995	        0.1844966325	        0.0000000000	        0.0396390008	      101.1239618460	      569.0871628949	       -1.4951554172	       -0.3013588306	        0.0000000000	       -0.0382412137	        0.0000000000	        0.0000000000	        0.0000000000	        0.0000000000	        0.0000000000	        0.0000000000	
        0.0110626609	     -106.7647628540	      117.9977970860	       58.8055685933	        0.1922853852	        0.0000000000	        0.0373562162	       90.1358066796	      500.1957922851	       -4.5644046512	       -0.2988588964	        0.0000000000	       -0.0377163468	        0.0000000000	        0.0000000000	        0.0000000000	        0.0000000000	        0.0000000000	        0.0000000000	
        0.0221253218	      -37.6456482542	      237.2681220222	       33.9656563688	        0.1975632680	        0.0000000000	        0.0349609051	       75.9512694462	      417.0822694997	       -5.8066248366	       -0.2951950982	        0.0000000000	       -0.0366833669	        0.0000000000	        0.0000000000	        0.0000000000	        0.0000000000	        0.0000000000	        0.0000000000	
        0.0331879827	      -29.6948557226	      366.5803294917	        4.4313011641	        0.1999472887	        0.0000000000	        0.0343015553	       60.7160367656	      333.1514212839	       -3.7407277608	       -0.2899094266	        0.0000000000	       -0.0348552400	        0.0000000000	        0.0000000000	        0.0000000000	        0.0000000000	        0.0000000000	        0.0000000000	
        0.0442506436	      -48.3315475552	      491.1115068284	       -1.4495410616	        0.2036722393	        0.0000000000	        0.0351483037	       37.7694718838	      244.8358232343	       -4.2160817793	       -0.2813762301	        0.0000000000	       -0.0314675720	        0.0000000000	        0.0000000000	        0.0000000000	        0.0000000000	        0.0000000000	        0.0000000000	
        0.0553133045	      -78.3121618369	      630.4333253306	       -6.2453128534	        0.2111804516	        0.0000000000	        0.0375220969	       15.2334534510	      161.2462298967	       -9.4444621570	       -0.2668580456	        0.0000000000	       -0.0249495092	        0.0000000000	        0.0000000000	        0.0000000000	        0.0000000000	        0.0000000000	        0.0000000000	
        0.0663759654	      -97.6033345817	      732.8887017951	       -9.1841010436	        0.2170174986	        0.0000000000	        0.0392637418	        3.5542422553	      128.6523821078	      -12.4003445738	       -0.2623136480	        0.0000000000	       -0.0226586144	        0.0000000000	        0.0000000000	        0.0000000000	        0.0000000000	        0.0000000000	        0.0000000000	
        0.0774386263	     -101.7584082791	      777.9013704228	      -11.0420475036	        0.2212381092	        0.0000000000	        0.0403970476	        1.7392216838	       98.2319904501	      -13.4210350000	       -0.2617328099	        0.0000000000	       -0.0227735308	        0.0000000000	        0.0000000000	        0.0000000000	        0.0000000000	        0.0000000000	        0.0000000000	
        0.0885012872	      -97.7021513642	      783.0492930368	      -11.2576049854	        0.2244642073	        0.0000000000	        0.0411405670	       -2.5011151780	       62.7327118209	      -11.9648248928	       -0.2612699350	        0.0000000000	       -0.0227939619	        0.0000000000	        0.0000000000	        0.0000000000	        0.0000000000	        0.0000000000	        0.0000000000	
        0.0995639481	      -90.7045137071	      773.6450405463	      -11.5734687225	        0.2273682402	        0.0000000000	        0.0416045828	       -8.0596952794	       25.0409462151	       -5.6002820635	       -0.2616519197	        0.0000000000	       -0.0223941812	        0.0000000000	        0.0000000000	        0.0000000000	        0.0000000000	        0.0000000000	        0.0000000000	
        0.1106266090	      -82.0046703779	      763.1402724470	      -12.6715562279	        0.2305009807	        0.0000000000	        0.0418553185	        0.0813669551	       -0.0792596125	        0.0017224419	        0.0000000000	        0.0000000000	        0.0000000000	        0.0000000000	        0.0000000000	        0.0000000000	        0.0000000000	        0.0000000000	        0.0000000000	
        0.1216892699	      -71.0546574164	      744.8491577373	      -13.6658377758	        0.2337867064	        0.0000000000	        0.0420092982	        0.0001942907	       -0.0001544946	       -0.0000102155	        0.0000000000	        0.0000000000	        0.0000000000	        0.0000000000	        0.0000000000	        0.0000000000	        0.0000000000	        0.0000000000	        0.0000000000	
        0.1327519308	      -61.6361222195	      722.8069242091	      -14.3904855052	        0.2377818376	        0.0000000000	        0.0420732500	        0.0000873118	       -0.0000600869	       -0.0000061465	        0.0000000000	        0.0000000000	        0.0000000000	        0.0000000000	        0.0000000000	        0.0000000000	        0.0000000000	        0.0000000000	        0.0000000000	
        0.1438145917	      -53.3550125651	      700.5307126292	      -14.9657075719	        0.2424421358	        0.0000000000	        0.0420379131	        0.0010323921	       -0.0006358244	       -0.0000809414	        0.0000000000	        0.0000000000	        0.0000000000	        0.0000000000	        0.0000000000	        0.0000000000	        0.0000000000	        0.0000000000	        0.0000000000	
        0.1548772526	      -45.2768765068	      676.5210681151	      -15.6827731182	        0.2472078786	        0.0000000000	        0.0420187408	       -0.0014458802	        0.0008147723	        0.0001203076	        0.0000000000	        0.0000000000	        0.0000000000	        0.0000000000	        0.0000000000	        0.0000000000	        0.0000000000	        0.0000000000	        0.0000000000	
        0.1659399135	      -37.7228187718	      652.8275476655	      -16.2694852284	        0.2518459606	        0.0000000000	        0.0420524482	       -0.0335489951	        0.0175708753	        0.0028998803	        0.0000000000	        0.0000000000	        0.0000000000	        0.0000000000	        0.0000000000	        0.0000000000	        0.0000000000	        0.0000000000	        0.0000000000	
        0.1770025744	      -31.1421495823	      631.5522372321	      -16.6628138552	        0.2563773125	        0.0000000000	        0.0421320236	       -0.0228111982	        0.0112304481	        0.0020258161	        0.0000000000	        0.0000000000	        0.0000000000	        0.0000000000	        0.0000000000	        0.0000000000	        0.0000000000	        0.0000000000	        0.0000000000	
        0.1880652353	      -25.3340302649	      613.7370638235	      -17.1201466863	        0.2609560479	        0.0000000000	        0.0422345075	       -0.0171319676	        0.0080025773	        0.0015464780	        0.0000000000	        0.0000000000	        0.0000000000	        0.0000000000	        0.0000000000	        0.0000000000	        0.0000000000	        0.0000000000	        0.0000000000	
        0.1991278962	      -20.5747059860	      600.1370474783	      -17.3337230063	        0.2658040095	        0.0000000000	        0.0423372384	       -0.0169730362	        0.0075795315	        0.0015422513	        0.0000000000	        0.0000000000	        0.0000000000	        0.0000000000	        0.0000000000	        0.0000000000	        0.0000000000	        0.0000000000	        0.0000000000	
        0.2101905571	      -17.1924045187	      590.8300036666	      -17.3822283841	        0.2709371584	        0.0000000000	        0.0424134384	       -0.0224166827	        0.0096289208	        0.0020324937	        0.0000000000	        0.0000000000	        0.0000000000	        0.0000000000	        0.0000000000	        0.0000000000	        0.0000000000	        0.0000000000	        0.0000000000	
